<?xml version="1.0" encoding="UTF-8"?>
<svg id="Layer_2" data-name="Layer 2" xmlns="http://www.w3.org/2000/svg" viewBox="0 0 388.46 278.25">
  <defs>
    <style>
      .cls-1 {
        fill: #00d4ff;
      }
    </style>
  </defs>
  <g id="Layer_1-2" data-name="Layer 1">
    <path class="cls-1" d="M231.2,37.63v29.79l-34.32,35.12c-2.84,3.39-9.21,1.31-12.84-.05-7.95-2.98-18.69-14.1-18.69-22.97v-47.27c-2.22.13-4.97,2.72-6.73,4.25-25.43,22.11-23.65,61.75,3.64,81.5,9.51,6.88,20.63,10.12,32.35,10.56.29.09.75,1.02.75,1.14v21.06c0,.12-.46,1.05-.76,1.14-33.9.27-65.37-22.1-75.18-54.68C106.33,53.77,135.77,9.46,179.5,1.38c4.6-.85,9.27-.7,13.89-1.37.37-.1,1.08.46,1.08.65v64.52l1.13.71,1.36-.46,13.64-14.58V2.01c0-.27.64-.63,1.03-.61,1.12.07,6.27,1.7,7.72,2.16,59.68,19.05,74.13,95.82,22.57,133.26-6.04,4.38-19.96,11.78-27.18,12.72-.56.07-1.9.09-1.9-.59v-22.85c1.91-1.81,4.94-2.31,7.26-3.49,26.37-13.38,37.18-45.1,22.99-71.56-1.83-3.41-7.15-10.97-10.29-13.01-.55-.36-.89-.55-1.59-.43Z"/>
    <rect class="cls-1" x="121.44" y="211.01" width="24.19" height="12.54"/>
    <rect class="cls-1" x="364.26" y="211.01" width="24.19" height="12.54"/>
    <g>
      <path class="cls-1" d="M79.1,172.93c20.48,2.17,22.19,33.29,2.46,37.19l13.44,13.44h-18.14l-26.21-23.97v-12.77h14.34v11.65h12.32c4.83,0,4.38-12.99.45-12.99h-27.11v-12.54h28.45Z"/>
      <polygon class="cls-1" points="362.47 186.82 362.47 193.09 383.75 193.09 384.42 193.76 384.42 205.63 363.14 205.63 362.47 206.31 362.47 223.56 348.81 223.56 348.13 222.88 348.13 187.49 348.81 186.82 362.47 186.82"/>
      <polygon class="cls-1" points="119.64 186.82 119.64 193.09 140.92 193.09 141.6 193.76 141.6 205.63 120.32 205.63 119.64 206.31 119.64 223.56 105.98 223.56 105.31 222.88 105.31 187.49 105.98 186.82 119.64 186.82"/>
      <path class="cls-1" d="M17.94,186.82c-.27,1.42-1.54,2.01-2.19,3.41-1.7,3.65-1.7,15.66,1.51,18.55,1,.9,4.57,2.23,5.83,2.23h17.02l.67.67v11.2c-.39.64-.89.62-1.55.69-11.63,1.36-30.54.34-36.48-11.5-3.37-6.72-3.89-18.58-.28-25.26h15.46Z"/>
      <polygon class="cls-1" points="337.83 172.93 319.46 223.56 305.8 223.56 305.32 222.64 323.49 172.93 337.83 172.93"/>
      <polygon class="cls-1" points="188.19 172.93 169.6 223.56 156.16 223.56 155.66 222.63 174.3 172.93 188.19 172.93"/>
      <polygon class="cls-1" points="207.9 223.56 181.47 223.56 181.47 211.01 189.09 211.01 182.79 193.32 189.76 174.73 207.9 223.56"/>
      <polygon class="cls-1" points="286.08 172.93 299.52 172.93 310.92 203.21 304 221.75 285.59 173.86 286.08 172.93"/>
      <polygon class="cls-1" points="207.46 185.47 207.46 172.93 250.69 172.93 251.36 173.6 251.36 184.8 250.69 185.47 207.46 185.47"/>
      <polygon class="cls-1" points="222.46 186.82 235.91 186.82 236.58 187.49 236.58 222.88 235.91 223.56 222.46 223.56 221.79 222.88 221.79 187.49 222.46 186.82"/>
      <polygon class="cls-1" points="275.56 223.56 261.22 223.56 261.22 186.82 274.88 186.82 275.56 187.49 275.56 223.56"/>
      <polygon class="cls-1" points="145.63 185.47 105.98 185.47 105.31 184.8 105.31 173.6 105.98 172.93 144.96 172.93 145.63 173.6 145.63 185.47"/>
      <polygon class="cls-1" points="388.46 185.47 348.81 185.47 348.13 184.8 348.13 173.6 348.81 172.93 387.79 172.93 388.46 173.6 388.46 185.47"/>
      <path class="cls-1" d="M3.16,185.47c2.62-9.25,14.05-12.05,22.61-12.56,3.53-.21,10.11-.4,13.48,0,.65.08,1.15.06,1.55.69v11.2l-.67.67H3.16Z"/>
      <path class="cls-1" d="M64.98,223.56h-14.34v-21.06l2.01.9c1.22,1.68,12.33,10.58,12.33,11.42v8.74Z"/>
      <polygon class="cls-1" points="275.56 185.47 261.22 185.47 261.22 172.93 274.88 172.93 275.56 173.6 275.56 185.47"/>
    </g>
    <g>
      <path class="cls-1" d="M250,230.29c1.22.82-.4,7.77-.73,9.31-.67,3.12-1.71,6.35-2.71,9.39-.75,2.27-2.97,6.45-3.26,8.39-.11.74,0,.72.68.68,1.44-.1,3.76-1.37,4.7.44l-6.08.87c-2.96,5.01-8.57,18.48-15.21,18.87-6.65.39-5.25-7.41-2.23-11.22,4.18-5.28,10.56-7.12,16.56-9.42,3.31-7.54,6.85-17.11,7.84-25.32.09-.71.09-.73-.65-.64-1.4.6-11.76,20.55-13.59,23.59-1.43,2.38-4.16,7.08-6.73,2.55-2.78-4.88.99-15.72,3.88-20.19.29-.45.75-1.58,1.43-.81-2.45,5.65-5.75,11.96-4.89,18.33.2,1.51.9,3.85,2.81,3.42,5.39-8.1,9.19-17.72,14.72-25.7.92-1.33,1.58-2.79,3.47-2.54ZM240.6,259.4c-6.46,1.53-17.71,6.97-16.59,15.03.58,4.19,5.18,2.2,7.37.15,1.64-1.53,10.22-13.93,9.23-15.19Z"/>
      <path class="cls-1" d="M114.26,266.56l-.86-.64c3.07-11.52,6.08-23.26,6.69-35.2-1.04-1.09-6.99,5.28-7.84,6.27-4.37,5.03-7.63,11.26-11.69,16.54l-1.31-.4c-.33-5.99,1.57-12.09,1.13-18.16-.05-.67.35-1.3-.67-1.11-3.12,2.66-4.85,6.74-5.93,10.65-1.16,4.2-2.32,9.47-.58,13.53-2.07,2.22-1.8-7.94-1.73-8.68.33-3.56,4.19-16.34,8.23-16.69l1.01.38c1.66,6.11-.36,12.53-.57,18.71,4.38-6,8.1-12.7,13.23-18.13,6.92-7.32,8.52-5.47,7.55,3.97s-4.01,19.46-6.67,28.95Z"/>
      <path class="cls-1" d="M295.62,230.65c-1.5.59-1.89,3.14-2.29,4.64-.47,1.77-3.05,14.58-2.54,15.15,3.25-.91,6.37-2.51,9.75-3.02.56-.09,2.57-.66,2.34.55l-9.97,3.03c-2.28.62-3.48,2.13-3.02,4.58.22,1.18,2.32,2.57,2.83,4.35.97,3.33-.44,10.25-4.61,10.21-1.53-1.27.64-11.28-.09-13.57-.35-1.08-1.96-.9-2.61-1.43-1.92-1.54,2.34-2.87,3.5-3.42.45-3.56.93-7.17,1.63-10.69.41-2.06,2-11.65,4.05-12.08.95,0,1.39.91,1.01,1.71ZM288.55,253.13c-.57-.35-1.96,1.12-1.79,1.34l1.79.45v-1.79ZM289.88,268.8c1.99-3.48,3.95-8.43-.21-11.2l-.68,10.98.89.22Z"/>
      <path class="cls-1" d="M265.7,249.99c.26.23,3.48-1.9,4.35-2.14.42-.12,1.58-.44,1.46.35-1.17.17-4.78,2.18-5.13,3.12-.25.66.5,2.73.48,3.76-.07,3.13-2.56,6.6-5.87,6.59-6.15-.02,1.16-9.44,3.75-10.63l-2.42-6.86-4.18,2.3c-.03,3.08.18,5.96-2.29,8.24-1.08.99-3.21,2.28-4.21.54-1-2.39,1.48-6.51,3.29-8.18l-1.34-.91c.84-4.03,2.81-1,3.89-.71,2.53.68,6.67-5.34,7.53-5.31,1.69,1.24-.47,1.76-.9,2.69-.93,2,1.69,4.91,1.57,7.16ZM252.71,254.91c3.69-.41,4.33-5.01,4.03-8.06-2.11,2.14-4.25,4.84-4.03,8.06ZM265.03,252.24c-1.56,1.47-5.36,5.17-5.17,7.38.16,1.99,2.64.74,3.59-.01,1.81-1.44,3.28-5.42,1.59-7.36Z"/>
      <path class="cls-1" d="M170.27,252.23c.76.96,7.67-9.37,7.61-2.69,2.29-.56,3.99-2.27,6.49-2.26.89,0,.72.04.68.91l-7.1,2.76c.56,4.45-3.95,18.21-9.61,17.32-6.31-.98,1.72-12.06,3.93-14.27.99-.99,4.74-3.28,4.73-4.24l-1.13-1.12c-1.23.83-4.89,6-6.49,4.92-.71-1.03.97-6.23,1.56-6.25,1.62.97-1.39,4.01-.67,4.92ZM176.99,252.23c-1.38-1.11-7.55,7.19-8.26,8.54-.6,1.13-2.43,5.15-1.18,6.05,6.5,0,8.27-9.45,9.44-14.59Z"/>
      <path class="cls-1" d="M144.73,229.38l-3.58,16.57c.57.62,5.31-4.06,5.82-1.12l-6.71,3.59c.7.96,1.86.71,2.9.67,2.93-.12,6.55-.99,9.43-1.68l.65,1.23-13.02,1.54c-.71.51-.73,4.78-.87,5.86-.08.61-.32,1.43-.89.67.21-3.14-.44-6.87.85-9.67,1.05-4.72,1.76-10.05,3.3-14.61.11-.32,1.3-4,2.11-3.04Z"/>
      <path class="cls-1" d="M207.01,241.93l-2.06,3.35,1.17,3.81c.21.22,4.16-3.53,5.37-2.47l-4.7,3.34c.12,1.75.78,3.38.71,5.18-.34,8.42-12.71,9.14-6.5-.65.62-.98,4.06-4.38,4.14-4.79.32-1.65-4.06-7.43,1.88-7.78ZM205.44,251.34c-1.71.77-7.06,8.62-4,9.37s6.91-6.83,4-9.37Z"/>
      <path class="cls-1" d="M290.34,232.97c-1.87,5.22-5.93,18.05-11.08,20.5-6.41,3.05-7.42-6.7-1.03-6.6,1.39,3.11-2.25,3.47-2.91,4.45-.98,1.46,1.98,1.57,3.05,1.26,4.26-1.23,8.93-14.76,10.88-18.71.32-.64-.1-1.13,1.09-.9ZM276.75,249.4c.28-.32.98-1.34.38-1.65l-2.01,2.69c.07.07,1.46-.84,1.64-1.04Z"/>
      <path class="cls-1" d="M202.08,244.61c.63.64-3.8,5.04-4.47,5.6-1.82,1.53-4.72,3.9-7.12,2.85l.4-2.63-4.26,1.64c-4-.48,4.8-8.78,5.52-2.66.09.77-1.05,3.2.3,2.8,1.63-.48,4.75-3,6.07-4.23.56-.52,2.88-4.06,3.57-3.37ZM190.88,248.2c-1.53-.12-2.88.97-3.58,2.23.76.38,4.4-1.51,3.58-2.23Z"/>
      <path class="cls-1" d="M140.7,233.42c-2.43,4.76-3.94,10.33-6.98,14.74s-6.43,7.48-5.56-.86h1.34s-.44,4.03-.44,4.03c.82.89,4.35-4.76,4.71-5.37,2.03-3.46,3.27-8.28,5.21-11.37.39-.62.87-1.33,1.73-1.18Z"/>
      <path class="cls-1" d="M156.83,247.3l-.89,3.58c4.1-.08,7.73-2.23,11.5-3.51l.59.82c-1.96.62-11.8,5.3-12.93,3.52-.22-1.49-.31-4.26,1.72-4.41Z"/>
      <path class="cls-1" d="M157.5,242.83c.85,0,.85,2.22,0,2.22s-.85-2.22,0-2.22Z"/>
      <path class="cls-1" d="M130.84,241.03v1.79s-1.34,0-1.34,0c-.1-.83-.03-1.31.68-1.79h.66Z"/>
    </g>
  </g>
</svg>